<svg width="36" height="36" viewBox="0 0 36 36" fill="none" xmlns="http://www.w3.org/2000/svg">
<path d="M25.9322 10.0687C25.5307 9.6672 24.8867 9.6672 24.4852 10.0687L18.0004 16.5536L11.5155 10.0687C11.114 9.6672 10.47 9.6672 10.0685 10.0687C9.66702 10.4702 9.66702 11.1142 10.0685 11.5157L16.5534 18.0005L10.0685 24.4854C9.66702 24.8869 9.66702 25.5308 10.0685 25.9323C10.2655 26.1293 10.5307 26.2354 10.7882 26.2354C11.0458 26.2354 11.311 26.1369 11.5079 25.9323L17.9928 19.4475L24.4776 25.9323C24.6746 26.1293 24.9398 26.2354 25.1973 26.2354C25.4625 26.2354 25.7201 26.1369 25.917 25.9323C26.3186 25.5308 26.3186 24.8869 25.917 24.4854L19.4473 18.0005L25.9322 11.5157C26.3337 11.1142 26.3337 10.4702 25.9322 10.0687Z" fill="#9E9EE0"/>
</svg>
