<svg width="22" height="21" viewBox="0 0 22 21" fill="none" xmlns="http://www.w3.org/2000/svg">
<path d="M1.09997 0.599689C0.993959 0.59819 0.888708 0.617775 0.790334 0.657306C0.691959 0.696837 0.602422 0.755526 0.526927 0.829961C0.451431 0.904397 0.391482 0.993095 0.350564 1.0909C0.309646 1.18871 0.288574 1.29367 0.288574 1.39969C0.288574 1.50571 0.309646 1.61067 0.350564 1.70848C0.391482 1.80628 0.451431 1.89498 0.526927 1.96942C0.602422 2.04385 0.691959 2.10254 0.790334 2.14207C0.888708 2.1816 0.993959 2.20119 1.09997 2.19969H2.60309C2.78382 2.19969 2.93462 2.31286 2.98591 2.48719L6.39528 14.0778C6.69451 15.0952 7.6355 15.7997 8.69684 15.7997H17.4781C18.5568 15.7997 19.5093 15.0706 19.7937 14.0309L21.8718 6.41063C21.9043 6.29192 21.9089 6.16733 21.8853 6.04654C21.8618 5.92576 21.8106 5.81204 21.736 5.71423C21.6613 5.61643 21.565 5.53716 21.4547 5.48261C21.3444 5.42805 21.223 5.39968 21.1 5.39969H5.51091L4.52184 2.03563C4.52132 2.03563 4.5208 2.03563 4.52028 2.03563C4.27077 1.18756 3.48637 0.599689 2.60309 0.599689H1.09997ZM9.09997 17.3997C8.67562 17.3997 8.26866 17.5683 7.9686 17.8683C7.66854 18.1684 7.49997 18.5753 7.49997 18.9997C7.49997 19.424 7.66854 19.831 7.9686 20.1311C8.26866 20.4311 8.67562 20.5997 9.09997 20.5997C9.52431 20.5997 9.93128 20.4311 10.2313 20.1311C10.5314 19.831 10.7 19.424 10.7 18.9997C10.7 18.5753 10.5314 18.1684 10.2313 17.8683C9.93128 17.5683 9.52431 17.3997 9.09997 17.3997ZM17.1 17.3997C16.6756 17.3997 16.2687 17.5683 15.9686 17.8683C15.6685 18.1684 15.5 18.5753 15.5 18.9997C15.5 19.424 15.6685 19.831 15.9686 20.1311C16.2687 20.4311 16.6756 20.5997 17.1 20.5997C17.5243 20.5997 17.9313 20.4311 18.2313 20.1311C18.5314 19.831 18.7 19.424 18.7 18.9997C18.7 18.5753 18.5314 18.1684 18.2313 17.8683C17.9313 17.5683 17.5243 17.3997 17.1 17.3997Z" fill="white"/>
</svg>
