<svg width="76" height="90" viewBox="0 0 76 90" fill="none" xmlns="http://www.w3.org/2000/svg">
<g filter="url(#filter0_d)">
<path d="M49.7969 37.4844H40.0926L48.4718 22.7511C48.6781 22.3886 48.6757 21.9433 48.466 21.5826C48.2564 21.2219 47.8703 21 47.4531 21H33.3906C32.8859 21 32.4376 21.3235 32.2786 21.8026L25.2473 42.9742C25.1286 43.3316 25.1887 43.724 25.409 44.0295C25.6294 44.3347 25.9828 44.5156 26.3594 44.5156H36.3041L29.969 59.3683C29.7435 59.8971 29.9345 60.5112 30.4203 60.8185C30.9062 61.1258 31.5431 61.0351 31.9242 60.6051L50.6743 39.4332C51.342 38.6789 50.8055 37.4844 49.7969 37.4844ZM34.9592 53.6432L39.156 43.8037C39.485 43.0322 38.9186 42.1719 38.0781 42.1719H27.9832L34.2363 23.3438H45.4384L37.0594 38.0767C36.6163 38.8559 37.1794 39.8281 38.0781 39.8281H47.1937L34.9592 53.6432Z" fill="#FFB018"/>
</g>
<defs>
<filter id="filter0_d" x="-7" y="0" width="90" height="90" filterUnits="userSpaceOnUse" color-interpolation-filters="sRGB">
<feFlood flood-opacity="0" result="BackgroundImageFix"/>
<feColorMatrix in="SourceAlpha" type="matrix" values="0 0 0 0 0 0 0 0 0 0 0 0 0 0 0 0 0 0 127 0" result="hardAlpha"/>
<feOffset dy="4"/>
<feGaussianBlur stdDeviation="12.5"/>
<feColorMatrix type="matrix" values="0 0 0 0 0.603922 0 0 0 0 0.0941176 0 0 0 0 1 0 0 0 0.4 0"/>
<feBlend mode="normal" in2="BackgroundImageFix" result="effect1_dropShadow"/>
<feBlend mode="normal" in="SourceGraphic" in2="effect1_dropShadow" result="shape"/>
</filter>
</defs>
</svg>
