<svg width="26" height="40" viewBox="0 0 26 40" fill="none" xmlns="http://www.w3.org/2000/svg">
    <path d="M24.7969 16.4844H15.0926L23.4718 1.7511C23.6781 1.38855 23.6757 0.943299 23.466 0.582581C23.2564 0.221863 22.8703 0 22.4531 0H8.39062C7.88586 0 7.43756 0.323487 7.27856 0.802613L0.247302 21.9742C0.128589 22.3316 0.188709 22.724 0.409046 23.0295C0.629383 23.3347 0.982777 23.5156 1.35936 23.5156H11.3041L4.96899 38.3683C4.74346 38.8971 4.9345 39.5112 5.42034 39.8185C5.90618 40.1258 6.54309 40.0351 6.92425 39.6051L25.6743 18.4332C26.342 17.6789 25.8055 16.4844 24.7969 16.4844ZM9.95923 32.6432L14.156 22.8037C14.485 22.0322 13.9186 21.1719 13.0781 21.1719H2.98321L9.23626 2.34375H20.4384L12.0594 17.0767C11.6163 17.8559 12.1794 18.8281 13.0781 18.8281H22.1937L9.95923 32.6432Z" fill="#FFB018"/>
</svg>