<svg width="40" height="40" viewBox="0 0 40 40" fill="none" xmlns="http://www.w3.org/2000/svg">
<path d="M20 0C31 0 40 9 40 20C40 31 31 40 20 40C9 40 0 30.9999 0 20C0 9.00014 9 0 20 0Z" fill="#DD4B39"/>
<path d="M30.1249 16.624V18.8741H32.3748V21.1241H30.1249V23.3741H27.8749V21.1241H25.6248V18.8741H27.8749V16.624H30.1249Z" fill="white"/>
<path d="M9.87491 25.6248C6.87491 22.6248 6.87491 17.3748 9.99986 14.3749C12.2499 12.1249 15.4998 11.625 18.3748 12.7499L19.4998 13.3749L20.7498 14.25L18.7498 16.25L17.9999 15.7501C16.2499 14.6251 13.7498 14.875 12.1249 16.5C10.2499 18.3751 10.1249 21.7501 12.1249 23.7501C14 25.7501 17.375 25.7501 19.1249 23.7501C19.6249 23.2501 20.1249 22.5 20.2499 21.7501V21.5H15.75V19.0001H22.8749L22.9999 19.6251V21.3751C22.8749 23.0001 22.2499 24.6251 21.1248 25.7501C18.1249 28.6248 12.8749 28.6248 9.87491 25.6248Z" fill="white"/>
</svg>
