<svg width="97" height="86" viewBox="0 0 97 86" fill="none" xmlns="http://www.w3.org/2000/svg">
<g clip-path="url(#clip0)" filter="url(#filter0_d)">
<path d="M68.8702 34.264L60.8511 25.6244C59.2644 24.0688 56.6795 24.0667 55.0779 25.637C54.5703 26.1346 54.2248 26.7305 54.0457 27.3662C52.4504 26.1681 50.1492 26.2873 48.6797 27.728C48.1742 28.2256 47.8287 28.8215 47.6453 29.455C46.05 28.2611 43.7488 28.3782 42.2815 29.8188C41.7846 30.306 41.4433 30.8873 41.2578 31.5062L37.4786 27.8011C35.8918 26.2454 33.307 26.2434 31.7053 27.8136C30.1165 29.3693 30.1165 31.9034 31.7053 33.4611L46.2249 47.696L37.6129 49.0216C35.2861 49.3478 33.5309 51.33 33.5309 53.6363C33.5309 55.3655 34.9662 56.7727 36.73 56.7727H56.8395C59.9725 56.7727 62.9178 55.5766 65.1336 53.4042L68.4884 50.1152C70.7021 47.9469 71.9199 45.0615 71.9199 41.9941C71.9199 39.1295 70.8365 36.3842 68.8702 34.264ZM66.9805 48.6369L63.6258 51.9259C61.813 53.7031 59.403 54.6817 56.8394 54.6817H36.7299C36.1413 54.6817 35.6635 54.2133 35.6635 53.6362C35.6635 52.3649 36.6317 51.2714 37.9305 51.0895L48.6262 49.4418C49.0229 49.3811 49.3492 49.1073 49.4751 48.733C49.5987 48.3608 49.4986 47.9489 49.2148 47.6708L33.2131 31.9828C32.456 31.2406 32.456 30.032 33.2238 29.2772C33.6034 28.9071 34.1003 28.721 34.5973 28.721C35.0942 28.721 35.5911 28.9071 35.9708 29.2793L46.6409 39.7401C47.0568 40.1479 47.7329 40.1479 48.1487 39.7401C48.3556 39.5352 48.4602 39.2676 48.4602 38.9999C48.4602 38.7323 48.3557 38.4647 48.1466 38.2598L43.7895 33.988C43.0324 33.2458 43.0324 32.0393 43.8023 31.2845C44.5573 30.5443 45.7921 30.5443 46.5471 31.2845L50.9064 35.5583C51.3222 35.966 51.9984 35.966 52.4142 35.5583C52.6211 35.3533 52.7256 35.0858 52.7256 34.8181C52.7256 34.5504 52.6212 34.2829 52.4121 34.0779L50.1877 31.8971C49.4306 31.1548 49.4306 29.9483 50.2005 29.1935C50.9555 28.4533 52.1903 28.4533 52.9453 29.1935L55.1804 31.3848C55.1847 31.3868 55.1825 31.3868 55.1825 31.3868L55.1846 31.3889C55.1867 31.3909 55.1867 31.3909 55.1867 31.3909C55.1888 31.393 55.1888 31.393 55.1888 31.393H55.1908C55.1929 31.393 55.1929 31.395 55.1929 31.395C55.6109 31.784 56.2721 31.7756 56.6794 31.3742C57.0953 30.9664 57.0953 30.3036 56.6794 29.8959L56.5878 29.806C56.221 29.4464 56.0183 28.9675 56.0183 28.4594C56.0183 27.9513 56.2188 27.4746 56.5984 27.1024C57.3577 26.3623 58.5862 26.3643 59.3092 27.0669L67.2941 35.671C68.9 37.4045 69.7872 39.6502 69.7872 41.9941C69.7872 44.5032 68.7912 46.8617 66.9805 48.6369Z" fill="#FF186B"/>
<path d="M43.3329 26.7743C41.7803 23.4058 38.3509 21.2271 34.5973 21.2271C29.306 21.2271 25 25.4486 25 30.6361C25 34.3162 27.2223 37.6784 30.6581 39.2026C30.801 39.2654 30.9503 39.2947 31.0975 39.2947C31.5027 39.2947 31.8908 39.0646 32.07 38.68C32.311 38.153 32.0721 37.5341 31.5368 37.2957C28.8624 36.1102 27.1328 33.4965 27.1328 30.6361C27.1328 26.6007 30.4811 23.3179 34.5974 23.3179C37.5149 23.3179 40.1809 25.0136 41.3902 27.6356C41.6312 28.1625 42.2646 28.3988 42.7999 28.1583C43.3372 27.9201 43.576 27.3012 43.3329 26.7743Z" fill="#FF186B"/>
</g>
<defs>
<filter id="filter0_d" x="0" y="-5" width="96.92" height="96" filterUnits="userSpaceOnUse" color-interpolation-filters="sRGB">
<feFlood flood-opacity="0" result="BackgroundImageFix"/>
<feColorMatrix in="SourceAlpha" type="matrix" values="0 0 0 0 0 0 0 0 0 0 0 0 0 0 0 0 0 0 127 0" result="hardAlpha"/>
<feOffset dy="4"/>
<feGaussianBlur stdDeviation="12.5"/>
<feColorMatrix type="matrix" values="0 0 0 0 0.603922 0 0 0 0 0.0941176 0 0 0 0 1 0 0 0 0.4 0"/>
<feBlend mode="normal" in2="BackgroundImageFix" result="effect1_dropShadow"/>
<feBlend mode="normal" in="SourceGraphic" in2="effect1_dropShadow" result="shape"/>
</filter>
<clipPath id="clip0">
<rect width="46.92" height="46" fill="white" transform="translate(25 16)"/>
</clipPath>
</defs>
</svg>
