<svg width="24" height="24" viewBox="0 0 24 24" fill="none" xmlns="http://www.w3.org/2000/svg">
<path d="M12 2.40039C6.70762 2.40039 2.39999 6.70802 2.39999 12.0004C2.39999 17.2928 6.70762 21.6004 12 21.6004C14.0439 21.6004 15.9334 20.9455 17.4828 19.8551C17.6564 19.733 17.7745 19.547 17.811 19.3379C17.8474 19.1289 17.7994 18.9139 17.6773 18.7402C17.5553 18.5666 17.3693 18.4486 17.1602 18.4121C16.9511 18.3756 16.7361 18.4237 16.5625 18.5457C15.2655 19.4584 13.7033 20.0004 12 20.0004C7.57237 20.0004 3.99999 16.428 3.99999 12.0004C3.99999 7.57276 7.57237 4.00039 12 4.00039C13.7033 4.00039 15.2655 4.54233 16.5625 5.45508C16.6485 5.51551 16.7455 5.55841 16.8481 5.58134C16.9506 5.60426 17.0567 5.60677 17.1602 5.5887C17.2637 5.57064 17.3627 5.53236 17.4514 5.47606C17.5401 5.41975 17.6169 5.34652 17.6773 5.26055C17.7378 5.17457 17.7807 5.07754 17.8036 4.97498C17.8265 4.87243 17.829 4.76636 17.811 4.66284C17.7929 4.55931 17.7546 4.46036 17.6983 4.37163C17.642 4.2829 17.5688 4.20613 17.4828 4.1457C15.9334 3.05525 14.0439 2.40039 12 2.40039ZM18.3922 7.99258C18.233 7.99262 18.0775 8.04012 17.9455 8.12901C17.8135 8.2179 17.711 8.34414 17.6511 8.49159C17.5912 8.63904 17.5767 8.801 17.6093 8.95677C17.642 9.11253 17.7203 9.25502 17.8344 9.36602L19.6687 11.2004H11.2C11.094 11.1989 10.9887 11.2185 10.8904 11.258C10.792 11.2975 10.7024 11.3562 10.627 11.4307C10.5515 11.5051 10.4915 11.5938 10.4506 11.6916C10.4097 11.7894 10.3886 11.8944 10.3886 12.0004C10.3886 12.1064 10.4097 12.2114 10.4506 12.3092C10.4915 12.407 10.5515 12.4957 10.627 12.5701C10.7024 12.6446 10.792 12.7032 10.8904 12.7428C10.9887 12.7823 11.094 12.8019 11.2 12.8004H19.6687L17.8344 14.6348C17.7576 14.7085 17.6963 14.7968 17.6541 14.8945C17.6118 14.9922 17.5895 15.0973 17.5884 15.2038C17.5874 15.3102 17.6075 15.4158 17.6478 15.5143C17.688 15.6129 17.7475 15.7024 17.8227 15.7776C17.898 15.8529 17.9875 15.9124 18.0861 15.9526C18.1846 15.9929 18.2902 16.013 18.3966 16.0119C18.5031 16.0109 18.6082 15.9886 18.7059 15.9463C18.8036 15.9041 18.8919 15.8428 18.9656 15.766L22.0953 12.6363C22.1933 12.5616 22.2727 12.4652 22.3273 12.3546C22.3819 12.2441 22.4103 12.1225 22.4101 11.9992C22.41 11.876 22.3813 11.7544 22.3265 11.644C22.2716 11.5336 22.1919 11.4374 22.0937 11.3629L18.9656 8.23477C18.8911 8.15813 18.8019 8.09721 18.7034 8.05562C18.6049 8.01402 18.4991 7.99258 18.3922 7.99258Z" fill="white"/>
</svg>
