<svg width="22" height="22" viewBox="0 0 22 22" fill="none" xmlns="http://www.w3.org/2000/svg">
<path d="M5.71992 0.919922C3.07448 0.919922 0.919922 3.07448 0.919922 5.71992V16.2799C0.919922 18.9254 3.07448 21.0799 5.71992 21.0799H16.2799C18.9254 21.0799 21.0799 18.9254 21.0799 16.2799V5.71992C21.0799 3.07448 18.9254 0.919922 16.2799 0.919922H5.71992ZM5.23992 6.67992H16.7599C16.8463 6.67992 16.9278 6.68967 17.0046 6.71367L12.2862 11.4274C11.5758 12.1378 10.4194 12.1378 9.70898 11.4274L4.99523 6.71367C5.07203 6.68967 5.15352 6.67992 5.23992 6.67992ZM4.31367 7.39523L7.92305 10.9999L4.31367 14.6046C4.28967 14.5278 4.27992 14.4463 4.27992 14.3599V7.63992C4.27992 7.55352 4.28967 7.47203 4.31367 7.39523ZM17.6862 7.39523C17.7102 7.47203 17.7199 7.55352 17.7199 7.63992V14.3599C17.7199 14.4463 17.7102 14.5278 17.6862 14.6046L14.0721 10.9999L17.6862 7.39523ZM8.59992 11.6768L9.02742 12.109C9.56982 12.6514 10.2848 12.9199 10.9952 12.9199C11.7104 12.9199 12.4206 12.6514 12.963 12.109L13.3952 11.6768L17.0046 15.2862C16.9278 15.3102 16.8463 15.3199 16.7599 15.3199H5.23992C5.15352 15.3199 5.07203 15.3102 4.99523 15.2862L8.59992 11.6768Z" fill="#E51BEF"/>
</svg>
