<svg width="18" height="17" xmlns="http://www.w3.org/2000/svg">

 <g>
  <title>background</title>
  <rect fill="none" id="canvas_background" height="402" width="582" y="-1" x="-1"/>
 </g>
 <g>
  <title>Layer 1</title>
  <path id="svg_1" fill="#E51BEF" d="m8.3732,0.50422c0.366,-0.29443 0.8876,-0.29443 1.2536,0l2.3158,1.86294c0.1193,0.09596 0.2591,0.16325 0.4085,0.19668l2.9004,0.64908c0.4584,0.10258 0.7836,0.51037 0.7816,0.9801l-0.0126,2.97212c-0.0007,0.15309 0.0338,0.30429 0.1008,0.44194l1.3009,2.67232c0.2056,0.4223 0.0896,0.9309 -0.2789,1.2222l-2.3316,1.8432c-0.1201,0.095 -0.2168,0.2162 -0.2826,0.3544l-1.2782,2.6833c-0.202,0.424 -0.6719,0.6504 -1.1294,0.5439l-2.89485,-0.6737c-0.14911,-0.0347 -0.30419,-0.0347 -0.4533,0l-2.8948,0.6737c-0.45751,0.1065 -0.92745,-0.1199 -1.12946,-0.5439l-1.2782,-2.6833c-0.06584,-0.1382 -0.16253,-0.2594 -0.28263,-0.3544l-2.33156,-1.8432c-0.36848,-0.2913 -0.48455,-0.7999 -0.27895,-1.2222l1.30091,-2.67232c0.06701,-0.13765 0.10152,-0.28885 0.10087,-0.44194l-0.0126,-2.97212c-0.00199,-0.46973 0.32321,-0.87752 0.7816,-0.9801l2.90041,-0.64908c0.1494,-0.03343 0.28913,-0.10072 0.40842,-0.19668l2.31584,-1.86294z"/>
  <g stroke="null" id="svg_6">
   <path stroke="null" id="svg_5" fill="#13131D" d="m11.767212,8.527829c0.480194,0.180557 0.861037,0.484652 1.14253,0.912287c0.281493,0.418131 0.422239,0.940796 0.422239,1.567993c0,0.864772 -0.289772,1.534732 -0.869316,2.009882c-0.579544,0.465646 -1.424023,0.69847 -2.533436,0.69847l-4.321743,0l0,-9.978136l4.073367,0c1.026621,0 1.817285,0.232823 2.371991,0.69847c0.554707,0.456143 0.83206,1.088092 0.83206,1.895846c0,0.494155 -0.09935,0.931293 -0.298051,1.311412c-0.198701,0.380119 -0.471915,0.674712 -0.819641,0.883778zm-4.545282,-3.335548l0,2.751115l2.28506,0c0.562986,0 0.993504,-0.114036 1.291556,-0.342108c0.30633,-0.237575 0.459496,-0.579682 0.459496,-1.026323c0,-0.456143 -0.153165,-0.798251 -0.459496,-1.026323c-0.298051,-0.237575 -0.72857,-0.356362 -1.291556,-0.356362l-2.28506,0zm2.607949,7.070222c1.25016,0 1.875239,-0.479901 1.875239,-1.439703c0,-0.959802 -0.62508,-1.439703 -1.875239,-1.439703l-2.607949,0l0,2.879405l2.607949,0z"/>
  </g>
 </g>
</svg>