<svg width="37" height="44" viewBox="0 0 37 44" fill="none" xmlns="http://www.w3.org/2000/svg">
    <path d="M34.6887 4.46976L20.1157 0.246018C18.9844 -0.0820058 17.7879 -0.0820058 16.6562 0.246018L2.08332 4.46967C1.0074 4.78146 0.255981 5.76905 0.255981 6.87145V18.732C0.255981 24.221 1.91858 29.5064 5.06407 34.0169C8.13497 38.4206 12.4087 41.8084 17.4227 43.8138C17.7333 43.9379 18.0596 44.0001 18.386 44.0001C18.7123 44.0001 19.0387 43.9378 19.3492 43.8138C24.3632 41.8084 28.6369 38.4207 31.7078 34.0169C34.8532 29.5064 36.5158 24.221 36.5158 18.732V6.87154C36.516 5.76913 35.7646 4.78146 34.6887 4.46976ZM34.4777 18.7319C34.4777 23.8149 32.9384 28.7087 30.0266 32.8842C27.182 36.9633 23.2242 40.1011 18.581 41.9581C18.4552 42.0084 18.3168 42.0084 18.1911 41.9581C13.5478 40.1011 9.58997 36.9634 6.74546 32.8842C3.83363 28.7087 2.29442 23.815 2.29442 18.7319V6.87145C2.29442 6.65103 2.44473 6.45354 2.65994 6.39115L17.2329 2.16741C17.6101 2.05801 17.9981 2.00344 18.3861 2.00344C18.774 2.00344 19.162 2.0581 19.5392 2.16749L34.1123 6.39115C34.3273 6.45345 34.4777 6.65094 34.4777 6.87145V18.7319Z" fill="#18BAFF"/>
    <path d="M29.6794 8.89932L18.8182 5.75143C18.5354 5.66953 18.2365 5.66936 17.9535 5.75143L7.09257 8.89932C6.44705 9.08649 5.99609 9.67912 5.99609 10.3405V18.732C5.99609 23.1662 7.36094 27.4193 9.94284 31.0316C11.9446 33.8325 14.6195 36.145 17.6781 37.7192C17.8997 37.8334 18.1428 37.8903 18.3859 37.8903C18.629 37.8903 18.8721 37.8334 19.0938 37.7192C22.1523 36.1451 24.8272 33.8325 26.829 31.0316C29.4109 27.4194 30.7758 23.1662 30.7758 18.732V10.3405C30.7757 9.67894 30.3248 9.08641 29.6794 8.89932ZM28.7374 18.732C28.7374 22.7519 27.5008 26.6069 25.1612 29.8801C23.3972 32.348 21.059 34.3971 18.3859 35.8201C15.7129 34.3971 13.3745 32.348 11.6107 29.8801C9.27109 26.6069 8.03444 22.7519 8.03444 18.732V10.7149L18.3859 7.71467L28.7374 10.7149V18.732Z" fill="#18BAFF"/>
</svg>