<svg width="177" height="21" fill="none" xmlns="http://www.w3.org/2000/svg"><path d="M14.895 9.892h4.144v7.952c-1.064.803-2.296 1.419-3.696 1.848-1.4.43-2.81.644-4.228.644-2.035 0-3.864-.43-5.488-1.288-1.624-.877-2.903-2.081-3.836-3.612C.876 13.886.419 12.141.419 10.2c0-1.941.457-3.677 1.372-5.208.933-1.55 2.221-2.753 3.864-3.612C7.298.503 9.145.064 11.199.064c1.717 0 3.276.29 4.676.868 1.4.579 2.576 1.419 3.528 2.52L16.491 6.14c-1.4-1.475-3.09-2.212-5.068-2.212-1.25 0-2.361.261-3.332.784a5.624 5.624 0 00-2.268 2.212c-.541.952-.812 2.044-.812 3.276 0 1.213.27 2.296.812 3.248a5.868 5.868 0 002.24 2.24c.97.523 2.072.784 3.304.784 1.307 0 2.483-.28 3.528-.84v-5.74zm28.77 10.444c-2.035 0-3.874-.439-5.517-1.316-1.623-.877-2.902-2.081-3.836-3.612-.914-1.55-1.371-3.285-1.371-5.208s.457-3.65 1.371-5.18c.934-1.55 2.213-2.763 3.837-3.64C39.79.503 41.628.064 43.663.064s3.864.439 5.489 1.316c1.623.877 2.902 2.09 3.836 3.64.933 1.53 1.4 3.257 1.4 5.18 0 1.923-.467 3.659-1.4 5.208-.934 1.53-2.212 2.735-3.836 3.612-1.624.877-3.454 1.316-5.489 1.316zm0-3.864c1.157 0 2.202-.261 3.136-.784a5.727 5.727 0 002.183-2.24c.542-.952.813-2.035.813-3.248s-.271-2.296-.813-3.248A5.535 5.535 0 0046.8 4.74c-.933-.541-1.978-.812-3.136-.812-1.157 0-2.202.27-3.136.812a5.725 5.725 0 00-2.212 2.212c-.522.952-.784 2.035-.784 3.248s.262 2.296.785 3.248a5.927 5.927 0 002.212 2.24c.933.523 1.978.784 3.135.784zM81.204 20l-3.78-5.46h-4.171V20h-4.537V.4H77.2c1.737 0 3.24.29 4.509.868 1.288.579 2.277 1.4 2.968 2.464.69 1.064 1.035 2.324 1.035 3.78s-.354 2.716-1.063 3.78c-.691 1.045-1.68 1.848-2.969 2.408l4.397 6.3h-4.873zM81.12 7.512c0-1.101-.354-1.941-1.063-2.52-.71-.597-1.746-.896-3.109-.896h-3.695v6.832h3.695c1.363 0 2.4-.299 3.109-.896.709-.597 1.063-1.437 1.063-2.52zm23.642-3.472v5.18h9.072v3.64h-9.072V20h-4.536V.4h14.812v3.64h-10.276zm32.975 16.296c-2.8 0-4.984-.775-6.552-2.324-1.549-1.55-2.324-3.761-2.324-6.636V.4h4.536v10.808c0 3.51 1.456 5.264 4.368 5.264 1.419 0 2.502-.42 3.248-1.26.747-.859 1.12-2.193 1.12-4.004V.4h4.48v10.976c0 2.875-.784 5.087-2.352 6.636-1.549 1.55-3.724 2.324-6.524 2.324zm28.01-16.24h-6.272V.4h17.08v3.696h-6.272V20h-4.536V4.096z" fill="#E51BEF"/></svg>