<svg xmlns="http://www.w3.org/2000/svg" width="50" height="50"><path fill="#1882ff" d="M5.483 31.652l-1.687.656C1.266 33.386-.046 34.51.001 35.494c.14 1.452 1.78 2.53 4.779 3.326a29.044 29.044 0 0011.9.656V35.4l-3.233 1.218c-3.373 1.171-5.107.188-5.107.188-.515-.328-.75-1.125.656-1.64l1.78-.656 5.903-2.108V27.67l-1.499.515zm24.64-16.445v12.134c2.53 1.218 4.778 1.312 6.465.047 1.733-1.218 2.67-3.326 2.67-6.512 0-3.326-.656-5.856-2.108-7.543-1.312-1.78-3.654-3.28-7.121-4.45-4.31-1.406-7.964-2.624-10.869-3.233v36.308l7.824 2.39V14.176c-.047-1.828 3.139-1.687 3.139 1.03z"/><path fill="#1882ff" d="M49.985 33.95c-.047-1.266-1.546-2.25-4.216-3.14-2.999-.983-5.575-1.452-8.386-1.358-2.577.047-5.669.89-8.433 1.78v4.638l7.59-2.67s2.295-.844 4.263-.328c1.499.375 1.405 1.218-.094 1.733l-1.733.703-10.026 3.607v4.732l4.685-1.687 11.244-3.982 1.311-.609c2.718-.984 3.936-2.061 3.795-3.42z"/></svg>