<svg xmlns="http://www.w3.org/2000/svg" width="36" height="34"><path fill="#fff" fill-opacity=".1" d="M34.853 15.315c.698-.677.945-1.67.643-2.593A2.525 2.525 0 0033.442 11L24.85 9.759a1.122 1.122 0 01-.845-.611L20.164 1.41A2.53 2.53 0 0017.882 0c-.975 0-1.85.54-2.282 1.41l-3.84 7.739a1.12 1.12 0 01-.847.61l-8.59 1.242a2.525 2.525 0 00-2.056 1.721 2.504 2.504 0 00.644 2.593l6.216 6.023c.265.257.387.628.324.99l-1.466 8.504c-.13.749.067 1.477.555 2.051a2.582 2.582 0 003.136.616l7.684-4.016a1.156 1.156 0 011.046 0l7.684 4.016a2.53 2.53 0 001.183.294 2.56 2.56 0 001.953-.91 2.465 2.465 0 00.555-2.05l-1.467-8.506a1.113 1.113 0 01.324-.989z"/></svg>