<svg xmlns="http://www.w3.org/2000/svg" width="35" height="34"><path fill="#ffe603" d="M33.886 15.315c.682-.677.923-1.67.629-2.593A2.482 2.482 0 0032.509 11l-8.387-1.241a1.097 1.097 0 01-.825-.611l-3.75-7.738a2.465 2.465 0 00-4.455 0l-3.75 7.739c-.16.33-.469.558-.826.61l-8.387 1.242a2.482 2.482 0 00-2.006 1.721 2.546 2.546 0 00.629 2.593l6.068 6.023c.259.257.377.628.316.99l-1.431 8.504a2.509 2.509 0 00.541 2.051c.74.895 2.03 1.168 3.062.616l7.5-4.016a1.105 1.105 0 011.022 0l7.5 4.016c.366.195.755.294 1.156.294a2.47 2.47 0 001.906-.91 2.508 2.508 0 00.542-2.05l-1.432-8.506a1.13 1.13 0 01.316-.989z"/></svg>