<svg xmlns="http://www.w3.org/2000/svg" width="16" height="16"><path fill="#ffe603" d="M15.653 7.287a1.14 1.14 0 00.29-1.176 1.14 1.14 0 00-.926-.781l-3.874-.563a.506.506 0 01-.382-.277L9.03.98A1.14 1.14 0 008 .34c-.44 0-.834.245-1.029.64L5.24 4.49a.507.507 0 01-.381.277L.984 5.33a1.14 1.14 0 00-.927.781 1.14 1.14 0 00.29 1.176L3.15 10.02c.12.117.175.285.146.449l-.66 3.858c-.06.34.03.67.25.93.34.406.937.53 1.414.28l3.464-1.822a.519.519 0 01.472 0l3.465 1.822c.169.088.348.133.534.133a1.15 1.15 0 001.13-1.343l-.661-3.858a.507.507 0 01.146-.449z"/></svg>