<svg width="130" height="175" fill="#9E9EE0" xmlns="http://www.w3.org/2000/svg"><path d="M82.233 6.1a8 8 0 0111.486 0l10.731 11.066a8 8 0 007.563 2.22l15.011-3.506a8 8 0 019.662 6.21l3.046 15.11a7.999 7.999 0 005.162 5.957l14.523 5.165a8 8 0 014.772 10.448l-5.608 14.359a8 8 0 001.122 7.802l9.426 12.197a8 8 0 01-1.635 11.369l-12.48 9.047a8.003 8.003 0 00-3.275 7.171l1.336 15.356a8 8 0 01-7.522 8.681l-15.391.864a8 8 0 00-6.631 4.261l-7.179 13.641a8 8 0 01-11.021 3.236l-13.414-7.594a8.001 8.001 0 00-7.882 0l-13.415 7.594a8 8 0 01-11.02-3.236l-7.18-13.641a8 8 0 00-6.63-4.261l-15.391-.864a8 8 0 01-7.522-8.681l1.336-15.356c.243-2.8-1-5.521-3.275-7.171l-12.48-9.047a8 8 0 01-1.635-11.369l9.426-12.197a8 8 0 001.122-7.802L11.763 58.77a8 8 0 014.772-10.448l14.523-5.165A8 8 0 0036.22 37.2l3.045-15.11a8 8 0 019.663-6.21l15.01 3.507a8 8 0 007.563-2.22L82.233 6.1z"/><path d="M112.343 85.667c4.436 1.443 7.953 3.873 10.553 7.29 2.6 3.342 3.9 7.519 3.9 12.531 0 6.911-2.676 12.265-8.029 16.062-5.353 3.721-13.153 5.582-23.4 5.582H55.451v-79.74h37.622c9.482 0 16.785 1.861 21.909 5.582 5.123 3.646 7.685 8.696 7.685 15.15 0 3.95-.918 7.443-2.753 10.48-1.835 3.038-4.359 5.393-7.571 7.063zm-41.98-26.655v21.985h21.105c5.2 0 9.176-.912 11.929-2.734 2.829-1.899 4.244-4.633 4.244-8.202 0-3.645-1.415-6.379-4.244-8.202-2.753-1.898-6.73-2.847-11.93-2.847H70.362zm24.087 56.5c11.547 0 17.32-3.835 17.32-11.505 0-7.67-5.773-11.505-17.32-11.505H70.362v23.01H94.45z" fill="#13131D"/></svg>