<svg width="50" height="50" fill="none" xmlns="http://www.w3.org/2000/svg"><g clip-path="url(#clip0)"><path d="M36.41 33.91a1.686 1.686 0 000-2.386L18.529 13.642a1.686 1.686 0 10-2.384 2.384l17.883 17.883a1.686 1.686 0 002.384 0z" fill="#933EC5"/><path d="M34.025 33.907l-2.874 1.358a2.53 2.53 0 10-4.4 2.09l-3.575 1.694a5.199 5.199 0 00-1.07-1.568 5.058 5.058 0 00-8.076 5.901L.053 50l3.557-7.511a4.215 4.215 0 103.608-7.62l4.181-8.827a4.22 4.22 0 003.566-7.528l1.18-2.487 17.88 17.88z" fill="#ED539D"/><path d="M14.952 37.485a5.085 5.085 0 00-.928 5.895l9.144-4.327a5.058 5.058 0 00-8.22-1.568h.004z" fill="#7ED63E"/><path d="M15.548 24.967a4.215 4.215 0 00-.584-6.45l-3.565 7.524a4.227 4.227 0 004.149-1.074z" fill="#FFCD00"/><path d="M24.635 29.14a2.529 2.529 0 11-5.058 0 2.529 2.529 0 015.058 0z" fill="#FF3051"/><path d="M14.85 32.12a1.686 1.686 0 11-3.372 0 1.686 1.686 0 013.372 0z" fill="#FFCD00"/><path d="M8.395 41.658a4.215 4.215 0 00-1.174-6.79l-3.613 7.618a4.223 4.223 0 004.787-.828z" fill="#2488FF"/><path d="M5.445 42.89c.159-.002.317-.012.475-.03l-.624 1.315-2.04 4.307L.053 50l3.557-7.511a4.3 4.3 0 001.835.401zm8.138-16.823c.114-.026.227-.06.337-.1l-.835 1.761-4.113 8.683a3.511 3.511 0 00-.16-.228 3.739 3.739 0 00-.414-.489 4.333 4.333 0 00-1.18-.826l4.181-8.826a4.267 4.267 0 001.838.101c.117-.017.232-.042.346-.076zm2.748-5.968a1.748 1.748 0 00-.118-.22 1.726 1.726 0 00-.126-.21 4.24 4.24 0 00-1.122-1.155l1.18-2.487 1.686 1.686-1.18 2.487-.143.303a4.276 4.276 0 00-.177-.404z" fill="#D54B8D"/><path d="M16.508 20.503l-2.588 5.463a4.599 4.599 0 01-.683.177 4.265 4.265 0 01-1.838-.1l3.566-7.529c.444.31.825.702 1.122 1.155.05.065.092.136.126.21.044.07.084.144.118.22.066.132.125.267.177.404z" fill="#E5B800"/><path d="M8.972 36.41l-.068.144L5.92 42.86c-.16.017-.32.025-.472.034a4.353 4.353 0 01-1.838-.405l3.608-7.62a4.33 4.33 0 011.18.825c.152.151.29.315.413.49.06.075.11.151.16.227z" fill="#207AE5"/><path d="M26.874 33.91a2.52 2.52 0 00-.12 3.444l4.4-2.086a2.529 2.529 0 00-4.28-1.359z" fill="#C2FB3B"/><path d="M40.736 5.102a1.686 1.686 0 11-3.372 0 1.686 1.686 0 013.372 0z" fill="#FF3051"/><path d="M39.05 19.433a1.686 1.686 0 11-3.372 0 1.686 1.686 0 013.371 0z" fill="#FFCD00"/><path d="M23.875 4.259a1.686 1.686 0 11-3.371 0 1.686 1.686 0 013.371 0z" fill="#C2FB3B"/><path d="M40.08 10.16h-1.523a7.552 7.552 0 00-7.044 4.77l-1.676 4.19a.844.844 0 101.566.627l1.675-4.192a5.873 5.873 0 015.48-3.709h1.523a7.586 7.586 0 006.697-4.025l3.146-6.57a.844.844 0 10-1.517-.728l-3.131 6.534a5.894 5.894 0 01-5.196 3.103z" fill="#FFCD00"/><path d="M23.992 14.24a.843.843 0 00.804.88h.04c.45 0 .822-.354.842-.804l.183-3.972a5.896 5.896 0 013.143-5.172l1.348-.711a7.556 7.556 0 003.173-3.182.843.843 0 10-1.493-.784 5.875 5.875 0 01-2.468 2.475l-1.349.712a7.565 7.565 0 00-4.04 6.616l-.183 3.941z" fill="#FF9811"/><path d="M49.165 17.747h-1.61a5.03 5.03 0 00-4.523 2.796l-1.043 2.084a3.35 3.35 0 01-3.015 1.864H36.52a.843.843 0 000 1.686h2.453a5.03 5.03 0 004.524-2.796l1.043-2.084a3.35 3.35 0 013.015-1.864h1.61a.843.843 0 100-1.686z" fill="#91DC5A"/><path d="M31.215 10.756a.843.843 0 00-1.192-1.192l-.843.843a.844.844 0 101.192 1.192l.843-.843z" fill="#FF3051"/><path d="M41.578 28.706h-1.686a.843.843 0 000 1.686h1.686a.843.843 0 000-1.686z" fill="#FF9811"/><path d="M46.04 26.424l-.843.843a.844.844 0 101.192 1.192l.843-.843a.843.843 0 00-1.192-1.192z" fill="#FFCD00"/><path d="M43.73 14.463l-1.685.843a.844.844 0 00.753 1.51l1.686-.844a.843.843 0 10-.753-1.509z" fill="#FF9811"/><path d="M20.503 9.317v.843a.843.843 0 001.686 0v-.843a.843.843 0 00-1.686 0z" fill="#FF3051"/><path d="M32.55 6.19a.844.844 0 00.758 1.424.506.506 0 00.161-.05.65.65 0 00.152-.076c.044-.031.086-.065.126-.101A.846.846 0 1032.55 6.19z" fill="#FFCD00"/><path d="M27.618 1.587a.66.66 0 00.152.076c.05.026.105.042.16.05.053.01.107.016.16.017a.98.98 0 00.16-.017.505.505 0 00.161-.05.478.478 0 00.143-.076.82.82 0 00.312-1.02.77.77 0 00-.185-.278.907.907 0 00-.27-.177.516.516 0 00-.161-.05.687.687 0 00-.32 0 .512.512 0 00-.16.05.66.66 0 00-.152.075l-.126.102a.855.855 0 000 1.197l.126.1z" fill="#A25BCD"/><path d="M28.554 15.361a.489.489 0 00-.143-.076.516.516 0 00-.161-.05.684.684 0 00-.32 0 .512.512 0 00-.16.05.659.659 0 00-.152.076 1.573 1.573 0 00-.126.101.855.855 0 000 1.197l.126.102a.663.663 0 00.152.075.48.48 0 00.16.05c.053.01.107.017.16.018a.985.985 0 00.16-.017.505.505 0 00.161-.05.477.477 0 00.143-.076.856.856 0 00.38-.7.848.848 0 00-.068-.32.772.772 0 00-.185-.279.908.908 0 00-.127-.101z" fill="#2488FF"/><path d="M47.724 12.934a.98.98 0 00-.177.278.797.797 0 000 .64.98.98 0 00.177.278c.16.156.375.244.598.245a.886.886 0 00.599-.245.972.972 0 00.177-.277.797.797 0 000-.641.972.972 0 00-.177-.278.882.882 0 00-1.197 0z" fill="#57A4FF"/><path d="M44.107 2.573a.835.835 0 00.843-.843.887.887 0 00-.244-.599.882.882 0 00-1.197 0 .855.855 0 000 1.197.883.883 0 00.598.245z" fill="#B2FA09"/><path d="M32.55 21.363a.844.844 0 00.758 1.425.506.506 0 00.161-.05.654.654 0 00.152-.076l.126-.102a.846.846 0 10-1.197-1.197z" fill="#FF3051"/><path d="M48.92 22.206a.882.882 0 00-1.196 0 .98.98 0 00-.177.279.797.797 0 000 .64.98.98 0 00.177.278c.16.156.375.244.598.245a.886.886 0 00.599-.245.972.972 0 00.177-.277.797.797 0 000-.641.973.973 0 00-.177-.279z" fill="#ED539D"/></g><defs><clipPath id="clip0"><path fill="#fff" d="M0 0h50v50H0z"/></clipPath></defs></svg>