<svg width="76" height="90" fill="none" xmlns="http://www.w3.org/2000/svg"><g filter="url(#filter0_d)"><path d="M49.797 37.484h-9.704l8.379-14.733A1.172 1.172 0 0047.453 21H33.391a1.17 1.17 0 00-1.112.803l-7.032 21.171a1.172 1.172 0 001.112 1.542h9.945L29.97 59.368a1.172 1.172 0 001.955 1.237l18.75-21.172c.668-.754.132-1.949-.877-1.949zm-14.838 16.16l4.197-9.84a1.173 1.173 0 00-1.078-1.632H27.983l6.253-18.828h11.202L37.06 38.077a1.173 1.173 0 001.02 1.751h9.115L34.959 53.643z" fill="#FFB018"/></g><defs><filter id="filter0_d" x="-7" y="0" width="90" height="90" filterUnits="userSpaceOnUse" color-interpolation-filters="sRGB"><feFlood flood-opacity="0" result="BackgroundImageFix"/><feColorMatrix in="SourceAlpha" values="0 0 0 0 0 0 0 0 0 0 0 0 0 0 0 0 0 0 127 0" result="hardAlpha"/><feOffset dy="4"/><feGaussianBlur stdDeviation="12.5"/><feColorMatrix values="0 0 0 0 0.603922 0 0 0 0 0.0941176 0 0 0 0 1 0 0 0 0.4 0"/><feBlend in2="BackgroundImageFix" result="effect1_dropShadow"/><feBlend in="SourceGraphic" in2="effect1_dropShadow" result="shape"/></filter></defs></svg>