<svg width="44" height="40" viewBox="0 0 44 40" fill="none" xmlns="http://www.w3.org/2000/svg">
    <path d="M33.6378 16.8618C33.6368 16.8536 33.6362 16.8453 33.635 16.8373C33.6292 16.7971 33.6216 16.7569 33.6107 16.7173C33.6106 16.7169 33.6104 16.7165 33.6103 16.716C33.6002 16.679 33.5872 16.6425 33.5726 16.6063C33.5684 16.596 33.5638 16.586 33.5594 16.5759C33.5478 16.5498 33.535 16.5241 33.521 16.4988C33.515 16.4878 33.5091 16.4767 33.5025 16.4659C33.499 16.46 33.4962 16.4539 33.4926 16.448C33.4778 16.4247 33.4617 16.4027 33.4454 16.3808C33.4423 16.3768 33.4398 16.3725 33.4367 16.3685C33.4118 16.3363 33.385 16.3063 33.3568 16.2779C33.3515 16.2725 33.3457 16.2676 33.3403 16.2624C33.3158 16.2388 33.2904 16.2167 33.2639 16.1959C33.2571 16.1906 33.2506 16.1853 33.2436 16.1803C33.2082 16.154 33.1716 16.1295 33.1335 16.1083L18.4678 7.77194L26.9118 2.45475L41.0681 10.5013L35.1061 14.2555C34.6408 14.5484 34.5012 15.1631 34.7941 15.6283C35.087 16.0936 35.7016 16.2332 36.1669 15.9403L43.5359 11.3001C43.8322 11.1136 44.0087 10.7852 44.0007 10.4352C43.9929 10.0852 43.8018 9.76527 43.4974 9.59225L27.3775 0.429367C27.0587 0.247993 26.6657 0.256952 26.3552 0.452362L16.0067 6.9688C16.0046 6.97009 16.0024 6.97149 16.0003 6.97278L10.8291 10.2291C10.8267 10.2305 10.8244 10.232 10.8221 10.2335L0.466507 16.7544C0.170256 16.9409 -0.00624038 17.2693 0.00172336 17.6193C0.00958756 17.9693 0.200618 18.2893 0.505032 18.4623L16.625 27.6252C16.7778 27.7121 16.9474 27.7553 17.1169 27.7553C17.3014 27.7553 17.4855 27.704 17.6473 27.6022L25.0163 22.9619C25.4816 22.669 25.6213 22.0543 25.3283 21.5891C25.0356 21.1239 24.4208 20.9841 23.9556 21.2772L17.0907 25.5999L2.93447 17.5531L11.3786 12.2358L26.4769 20.818V32.1844C26.4769 32.547 26.6739 32.8807 26.9913 33.0559C27.1413 33.1388 27.3069 33.1799 27.4724 33.1799C27.6569 33.1799 27.8411 33.1286 28.0028 33.0268L33.1806 29.7663C33.4701 29.584 33.6457 29.266 33.6457 28.924V16.9783C33.6457 16.9725 33.6447 16.9669 33.6445 16.961C33.6439 16.928 33.6417 16.8949 33.6378 16.8618ZM28.4678 30.3813V20.2389C28.4678 19.8808 28.2755 19.5504 27.9642 19.3735L13.2899 11.0324L16.5564 8.97546L30.7125 17.0221L29.4731 17.8026C29.0078 18.0954 28.8681 18.7101 29.1611 19.1753C29.3502 19.476 29.6736 19.6405 30.0044 19.6405C30.1856 19.6405 30.3692 19.591 30.5338 19.4873L31.6546 18.7816V28.3745L28.4678 30.3813Z" fill="#18FFAC"/>
    <path d="M42.474 13.5971L35.105 18.2373C34.6397 18.5302 34.5 19.1449 34.793 19.6101C34.9821 19.9107 35.3056 20.0752 35.6364 20.0752C35.8175 20.0752 36.0011 20.0258 36.1658 19.922L43.5348 15.2819C44.0001 14.989 44.1398 14.3743 43.8468 13.9091C43.5539 13.4438 42.9392 13.3041 42.474 13.5971Z" fill="#18FFAC"/>
    <path d="M23.9543 25.2588L17.0894 29.5815L1.48754 20.7132C1.00991 20.4417 0.401881 20.6085 0.130217 21.0867C-0.141446 21.5646 0.0256932 22.1724 0.503717 22.444L16.6237 31.6069C16.7764 31.6938 16.9461 31.737 17.1156 31.737C17.3001 31.737 17.4842 31.6858 17.646 31.5839L25.015 26.9437C25.4803 26.6508 25.62 26.0361 25.327 25.5709C25.0342 25.1055 24.4194 24.9658 23.9543 25.2588Z" fill="#18FFAC"/>
    <path d="M42.474 17.5791L35.105 22.2193C34.6397 22.5121 34.5 23.1268 34.793 23.592C34.9821 23.8926 35.3056 24.0572 35.6364 24.0572C35.8175 24.0572 36.0011 24.0077 36.1658 23.904L43.5348 19.2638C44.0001 18.9709 44.1398 18.3562 43.8468 17.8911C43.5539 17.4257 42.9392 17.286 42.474 17.5791Z" fill="#18FFAC"/>
    <path d="M23.9543 29.2408L17.0894 33.5635L1.48754 24.6952C1.00991 24.4236 0.401881 24.5904 0.130217 25.0687C-0.141446 25.5466 0.0256932 26.1543 0.503717 26.426L16.6237 35.5889C16.7764 35.6758 16.9461 35.719 17.1156 35.719C17.3001 35.719 17.4842 35.6677 17.646 35.5659L25.015 30.9256C25.4803 30.6327 25.62 30.018 25.327 29.5528C25.0342 29.0874 24.4194 28.9477 23.9543 29.2408Z" fill="#18FFAC"/>
    <path d="M42.474 21.5609L35.105 26.2011C34.6397 26.494 34.5 27.1087 34.793 27.5739C34.9821 27.8745 35.3056 28.0391 35.6364 28.0391C35.8175 28.0391 36.0011 27.9896 36.1658 27.8858L43.5348 23.2457C44.0001 22.9528 44.1398 22.3381 43.8468 21.8729C43.5539 21.4076 42.9392 21.268 42.474 21.5609Z" fill="#18FFAC"/>
    <path d="M23.9543 33.2227L17.0894 37.5454L1.48754 28.6771C1.00991 28.4055 0.401881 28.5724 0.130217 29.0506C-0.141446 29.5285 0.0256932 30.1362 0.503717 30.4079L16.6237 39.5708C16.7764 39.6577 16.9461 39.7009 17.1156 39.7009C17.3001 39.7009 17.4842 39.6496 17.646 39.5478L25.015 34.9075C25.4803 34.6147 25.62 34 25.327 33.5348C25.0342 33.0694 24.4194 32.9296 23.9543 33.2227Z" fill="#18FFAC"/>
</svg>