<svg width="94" height="90" fill="none" xmlns="http://www.w3.org/2000/svg"><g clip-path="url(#clip0)" filter="url(#filter0_d)" fill="#18FFAC"><path d="M58.638 37.862l-.003-.025a.977.977 0 00-.024-.12v-.001a.994.994 0 00-.038-.11l-.014-.03a.988.988 0 00-.038-.077l-.019-.033-.01-.018a1.107 1.107 0 00-.047-.067l-.008-.013a.976.976 0 00-.08-.09l-.017-.016a1 1 0 00-.076-.066l-.02-.016a1.005 1.005 0 00-.11-.072l-14.666-8.336 8.444-5.317L66.068 31.5l-5.962 3.754a.995.995 0 101.06 1.685l7.37-4.64a.995.995 0 00-.039-1.708l-16.12-9.163a.995.995 0 00-1.022.023L41.007 27.97l-.007.004-5.17 3.256a.165.165 0 00-.008.005l-10.356 6.52a.996.996 0 00.039 1.708l16.12 9.163a.994.994 0 001.022-.023l7.37-4.64a.995.995 0 10-1.061-1.685L42.09 46.6l-14.157-8.047 8.445-5.317 15.098 8.582v11.366a.995.995 0 001.526.843l5.178-3.26a.996.996 0 00.465-.843V37.978l-.002-.017a.851.851 0 00-.006-.1zm-5.17 13.52V41.238a.995.995 0 00-.504-.865L38.29 32.032l3.266-2.056 14.157 8.046-1.24.78a.995.995 0 101.06 1.685l1.122-.705v9.593l-3.187 2.006z"/><path d="M67.474 34.597l-7.37 4.64a.995.995 0 101.062 1.685l7.369-4.64a.995.995 0 10-1.061-1.685zm-18.52 11.662L42.09 50.58l-15.601-8.868a.995.995 0 00-.984 1.731l16.12 9.163a.994.994 0 001.022-.023l7.369-4.64a.995.995 0 10-1.06-1.685zm18.52-7.679l-7.37 4.64a.995.995 0 101.062 1.684l7.369-4.64a.995.995 0 10-1.061-1.685z"/><path d="M48.954 50.24l-6.865 4.323-15.601-8.868a.995.995 0 10-.984 1.731l16.12 9.163a.994.994 0 001.022-.023l7.369-4.64a.995.995 0 10-1.06-1.685zm18.52-7.68l-7.37 4.641a.995.995 0 101.062 1.685l7.369-4.64a.995.995 0 10-1.061-1.685z"/><path d="M48.954 54.223l-6.865 4.322-15.601-8.868a.995.995 0 10-.984 1.73l16.12 9.164a.994.994 0 001.022-.023l7.369-4.64a.995.995 0 10-1.06-1.685z"/></g><defs><clipPath id="clip0"><path fill="#fff" transform="translate(25 19)" d="M0 0h44v44H0z"/></clipPath><filter id="filter0_d" x="0" y="-2" width="94" height="94" filterUnits="userSpaceOnUse" color-interpolation-filters="sRGB"><feFlood flood-opacity="0" result="BackgroundImageFix"/><feColorMatrix in="SourceAlpha" values="0 0 0 0 0 0 0 0 0 0 0 0 0 0 0 0 0 0 127 0" result="hardAlpha"/><feOffset dy="4"/><feGaussianBlur stdDeviation="12.5"/><feColorMatrix values="0 0 0 0 0.603922 0 0 0 0 0.0941176 0 0 0 0 1 0 0 0 0.4 0"/><feBlend in2="BackgroundImageFix" result="effect1_dropShadow"/><feBlend in="SourceGraphic" in2="effect1_dropShadow" result="shape"/></filter></defs></svg>