<svg width="44" height="40" fill="none" xmlns="http://www.w3.org/2000/svg"><path d="M33.638 16.862l-.003-.025a.977.977 0 00-.024-.12v-.001a.994.994 0 00-.038-.11l-.014-.03a.988.988 0 00-.038-.077l-.019-.033-.01-.018a1.107 1.107 0 00-.047-.067l-.008-.012a.976.976 0 00-.08-.091l-.017-.016a1 1 0 00-.076-.066l-.02-.016a1.005 1.005 0 00-.11-.072L18.467 7.772l8.444-5.317L41.068 10.5l-5.962 3.755a.995.995 0 101.06 1.684l7.37-4.64a.995.995 0 00-.039-1.708L27.377.43a.995.995 0 00-1.022.023L16.007 6.97 16 6.973l-5.17 3.256a.165.165 0 00-.008.005L.467 16.753a.995.995 0 00.038 1.708l16.12 9.163a.994.994 0 001.022-.023l7.37-4.64a.995.995 0 10-1.061-1.685L17.09 25.6 2.934 17.553l8.445-5.317 15.098 8.582v11.366a.995.995 0 001.526.843l5.178-3.26a.996.996 0 00.465-.843V16.978l-.002-.017a.851.851 0 00-.006-.1zm-5.17 13.52V20.238a.995.995 0 00-.504-.866l-14.674-8.34 3.266-2.058 14.156 8.047-1.239.78a.995.995 0 101.06 1.685l1.122-.705v9.593l-3.187 2.006z" fill="#18FFAC"/><path d="M42.474 13.597l-7.369 4.64a.995.995 0 101.06 1.685l7.37-4.64a.995.995 0 10-1.061-1.685zm-18.52 11.662L17.09 29.58 1.488 20.713a.995.995 0 00-.984 1.731l16.12 9.163a.994.994 0 001.022-.023l7.369-4.64a.995.995 0 10-1.06-1.685zm18.52-7.679l-7.369 4.64a.995.995 0 101.06 1.684l7.37-4.64a.995.995 0 10-1.061-1.685z" fill="#18FFAC"/><path d="M23.954 29.24l-6.865 4.323-15.601-8.868a.995.995 0 10-.984 1.731l16.12 9.163a.994.994 0 001.022-.023l7.369-4.64a.995.995 0 10-1.06-1.685zm18.52-7.68l-7.369 4.641a.995.995 0 101.06 1.685l7.37-4.64a.995.995 0 10-1.061-1.685z" fill="#18FFAC"/><path d="M23.954 33.223l-6.865 4.322-15.601-8.868a.995.995 0 10-.984 1.73l16.12 9.164a.994.994 0 001.022-.023l7.369-4.64a.995.995 0 10-1.06-1.685z" fill="#18FFAC"/></svg>