<svg width="40" height="40" fill="none" xmlns="http://www.w3.org/2000/svg"><path d="M20 0c11 0 20 9 20 20s-9 20-20 20S0 31 0 20 9 0 20 0z" fill="#DD4B39"/><path d="M30.125 16.624v2.25h2.25v2.25h-2.25v2.25h-2.25v-2.25h-2.25v-2.25h2.25v-2.25h2.25zm-20.25 9.001c-3-3-3-8.25.125-11.25 2.25-2.25 5.5-2.75 8.375-1.625l1.125.625 1.25.875-2 2-.75-.5c-1.75-1.125-4.25-.875-5.875.75-1.875 1.875-2 5.25 0 7.25 1.875 2 5.25 2 7 0 .5-.5 1-1.25 1.125-2v-.25h-4.5V19h7.125l.125.625v1.75c-.125 1.625-.75 3.25-1.875 4.375-3 2.875-8.25 2.875-11.25-.125z" fill="#fff"/></svg>