<svg width="47" height="36" fill="none" xmlns="http://www.w3.org/2000/svg"><path d="M43.87 13.264l-8.019-8.64c-1.587-1.555-4.171-1.557-5.773.013a3.896 3.896 0 00-1.032 1.73 4.145 4.145 0 00-5.366.36 3.966 3.966 0 00-1.035 1.728 4.148 4.148 0 00-5.363.364 3.942 3.942 0 00-1.024 1.687l-3.78-3.705c-1.586-1.556-4.171-1.558-5.773.013a3.941 3.941 0 000 5.647l14.52 14.235-8.612 1.326c-2.327.326-4.082 2.308-4.082 4.614 0 1.73 1.435 3.137 3.199 3.137h20.11c3.132 0 6.078-1.196 8.294-3.369l3.354-3.289c2.214-2.168 3.432-5.053 3.432-8.12 0-2.866-1.084-5.61-3.05-7.731zm-1.89 14.373l-3.354 3.289a9.632 9.632 0 01-6.787 2.756H11.73a1.057 1.057 0 01-1.065-1.046c0-1.271.968-2.365 2.267-2.547l10.695-1.647c.397-.06.723-.335.85-.709a1.032 1.032 0 00-.261-1.062L8.213 10.983a1.886 1.886 0 01.01-2.706c.38-.37.877-.556 1.374-.556.497 0 .994.186 1.374.558L21.64 18.74a1.082 1.082 0 001.508 0 1.033 1.033 0 00-.002-1.48l-4.358-4.272a1.882 1.882 0 01.013-2.704c.755-.74 1.99-.74 2.745 0l4.36 4.274a1.082 1.082 0 001.507 0 1.033 1.033 0 00-.002-1.48l-2.224-2.18a1.882 1.882 0 01.013-2.704c.755-.74 1.99-.74 2.744 0l2.235 2.19c.005.003.003.003.003.003l.002.002.002.002.002.002h.002a1.08 1.08 0 001.489-.019 1.032 1.032 0 000-1.478l-.092-.09a1.875 1.875 0 01.01-2.704c.76-.74 1.988-.738 2.711-.035l7.985 8.604a9.286 9.286 0 012.493 6.323c0 2.51-.996 4.868-2.806 6.643z" fill="#FF186B"/><path d="M18.333 5.774C16.78 2.406 13.35.227 9.597.227 4.306.227 0 4.45 0 9.637c0 3.68 2.222 7.041 5.658 8.566.143.062.292.092.44.092.405 0 .793-.23.972-.615a1.041 1.041 0 00-.533-1.384c-2.675-1.186-4.404-3.8-4.404-6.66 0-4.035 3.348-7.318 7.464-7.318 2.918 0 5.584 1.696 6.793 4.318a1.07 1.07 0 001.41.522c.537-.238.776-.857.533-1.384z" fill="#FF186B"/></svg>