<svg width="97" height="86" fill="none" xmlns="http://www.w3.org/2000/svg"><g clip-path="url(#clip0)" filter="url(#filter0_d)" fill="#FF186B"><path d="M68.87 34.264l-8.019-8.64c-1.587-1.555-4.172-1.557-5.773.013a3.896 3.896 0 00-1.032 1.73 4.145 4.145 0 00-5.366.361 3.966 3.966 0 00-1.035 1.727 4.148 4.148 0 00-5.364.364 3.943 3.943 0 00-1.023 1.687l-3.78-3.705c-1.586-1.556-4.171-1.558-5.773.013a3.942 3.942 0 000 5.647l14.52 14.235-8.612 1.326c-2.327.326-4.082 2.308-4.082 4.614 0 1.73 1.435 3.137 3.199 3.137h20.11c3.132 0 6.078-1.196 8.294-3.369l3.354-3.289c2.214-2.168 3.432-5.053 3.432-8.12 0-2.865-1.084-5.61-3.05-7.731zm-1.89 14.373l-3.354 3.289a9.632 9.632 0 01-6.787 2.756H36.73a1.057 1.057 0 01-1.066-1.046c0-1.271.969-2.365 2.268-2.547l10.695-1.647c.397-.06.723-.335.85-.709a1.032 1.032 0 00-.261-1.062L33.213 31.983a1.886 1.886 0 01.01-2.706c.38-.37.877-.556 1.374-.556.497 0 .994.186 1.374.558L46.64 39.74a1.082 1.082 0 001.508 0 1.033 1.033 0 00-.002-1.48l-4.358-4.272a1.882 1.882 0 01.013-2.703c.755-.74 1.99-.74 2.745 0l4.36 4.273a1.082 1.082 0 001.507 0 1.033 1.033 0 00-.002-1.48l-2.224-2.18a1.882 1.882 0 01.012-2.704c.755-.74 1.99-.74 2.745 0l2.235 2.19c.005.003.002.003.002.003l.003.002.002.002.002.002h.002a1.08 1.08 0 001.489-.019 1.032 1.032 0 000-1.478l-.092-.09a1.875 1.875 0 01.01-2.704c.76-.74 1.988-.738 2.711-.035l7.985 8.604a9.286 9.286 0 012.493 6.323c0 2.51-.996 4.868-2.806 6.643z"/><path d="M43.333 26.774c-1.553-3.368-4.982-5.547-8.736-5.547-5.291 0-9.597 4.222-9.597 9.41 0 3.68 2.222 7.041 5.658 8.566.143.062.292.092.44.092.405 0 .793-.23.972-.615a1.041 1.041 0 00-.533-1.384c-2.675-1.186-4.404-3.8-4.404-6.66 0-4.035 3.348-7.318 7.464-7.318 2.918 0 5.584 1.696 6.793 4.318a1.07 1.07 0 001.41.522c.537-.238.776-.857.533-1.384z"/></g><defs><clipPath id="clip0"><path fill="#fff" transform="translate(25 16)" d="M0 0h46.92v46H0z"/></clipPath><filter id="filter0_d" x="0" y="-5" width="96.92" height="96" filterUnits="userSpaceOnUse" color-interpolation-filters="sRGB"><feFlood flood-opacity="0" result="BackgroundImageFix"/><feColorMatrix in="SourceAlpha" values="0 0 0 0 0 0 0 0 0 0 0 0 0 0 0 0 0 0 127 0" result="hardAlpha"/><feOffset dy="4"/><feGaussianBlur stdDeviation="12.5"/><feColorMatrix values="0 0 0 0 0.603922 0 0 0 0 0.0941176 0 0 0 0 1 0 0 0 0.4 0"/><feBlend in2="BackgroundImageFix" result="effect1_dropShadow"/><feBlend in="SourceGraphic" in2="effect1_dropShadow" result="shape"/></filter></defs></svg>