<svg width="47" height="36" viewBox="0 0 47 36" fill="none" xmlns="http://www.w3.org/2000/svg">
    <path d="M43.8702 13.264L35.8511 4.62443C34.2644 3.06879 31.6795 3.06674 30.0779 4.63698C29.5703 5.13458 29.2248 5.73049 29.0457 6.36619C27.4504 5.1681 25.1492 5.28728 23.6797 6.72795C23.1742 7.22556 22.8287 7.82147 22.6453 8.45501C21.05 7.26113 18.7488 7.37816 17.2815 8.81883C16.7846 9.30604 16.4433 9.88725 16.2578 10.5062L12.4786 6.80107C10.8918 5.24543 8.30695 5.24337 6.70531 6.81361C5.11646 8.36925 5.11646 10.9034 6.70531 12.4611L21.2249 26.696L12.6129 28.0216C10.2861 28.3478 8.53089 30.33 8.53089 32.6363C8.53089 34.3655 9.96618 35.7727 11.73 35.7727H31.8395C34.9725 35.7727 37.9178 34.5766 40.1336 32.4042L43.4884 29.1152C45.7021 26.9469 46.9199 24.0615 46.9199 20.9941C46.9199 18.1295 45.8365 15.3842 43.8702 13.264ZM41.9805 27.6369L38.6258 30.9259C36.813 32.7031 34.403 33.6817 31.8394 33.6817H11.7299C11.1413 33.6817 10.6635 33.2133 10.6635 32.6362C10.6635 31.3649 11.6317 30.2714 12.9305 30.0895L23.6262 28.4418C24.0229 28.3811 24.3492 28.1073 24.4751 27.733C24.5987 27.3608 24.4986 26.9489 24.2148 26.6708L8.21308 10.9828C7.456 10.2406 7.456 9.032 8.22378 8.27722C8.60337 7.90713 9.10033 7.721 9.59729 7.721C10.0942 7.721 10.5911 7.90713 10.9708 8.27928L21.6409 18.7401C22.0568 19.1479 22.7329 19.1479 23.1487 18.7401C23.3556 18.5352 23.4602 18.2676 23.4602 17.9999C23.4602 17.7323 23.3557 17.4647 23.1466 17.2598L18.7895 12.988C18.0324 12.2458 18.0324 11.0393 18.8023 10.2845C19.5573 9.54431 20.7921 9.54431 21.5471 10.2845L25.9064 14.5583C26.3222 14.966 26.9984 14.966 27.4142 14.5583C27.6211 14.3533 27.7256 14.0858 27.7256 13.8181C27.7256 13.5504 27.6212 13.2829 27.4121 13.0779L25.1877 10.8971C24.4306 10.1548 24.4306 8.9483 25.2005 8.19352C25.9555 7.45333 27.1903 7.45333 27.9453 8.19352L30.1804 10.3848C30.1847 10.3868 30.1825 10.3868 30.1825 10.3868L30.1846 10.3889C30.1867 10.3909 30.1867 10.3909 30.1867 10.3909C30.1888 10.393 30.1888 10.393 30.1888 10.393H30.1908C30.1929 10.393 30.1929 10.395 30.1929 10.395C30.6109 10.784 31.2721 10.7756 31.6794 10.3742C32.0953 9.96644 32.0953 9.30359 31.6794 8.89587L31.5878 8.80599C31.221 8.44639 31.0183 7.9675 31.0183 7.45941C31.0183 6.95132 31.2188 6.47459 31.5984 6.10244C32.3577 5.36226 33.5862 5.36432 34.3092 6.06686L42.2941 14.671C43.9 16.4045 44.7872 18.6502 44.7872 20.9941C44.7872 23.5032 43.7912 25.8617 41.9805 27.6369Z" fill="#FF186B"/>
    <path d="M18.3329 5.7743C16.7803 2.40585 13.3509 0.227051 9.59728 0.227051C4.30598 0.227051 0 4.4486 0 9.63615C0 13.3162 2.22227 16.6784 5.6581 18.2026C5.80095 18.2654 5.95031 18.2947 6.09747 18.2947C6.50266 18.2947 6.89085 18.0646 7.06999 17.68C7.31103 17.153 7.07209 16.5341 6.53685 16.2957C3.8624 15.1102 2.1328 12.4965 2.1328 9.63615C2.1328 5.60072 5.48115 2.31793 9.59738 2.31793C12.5149 2.31793 15.1809 4.01363 16.3902 6.63563C16.6312 7.16254 17.2646 7.39884 17.7999 7.15832C18.3372 6.92006 18.576 6.30121 18.3329 5.7743Z" fill="#FF186B"/>
</svg>