<svg width="24" height="24" fill="none" xmlns="http://www.w3.org/2000/svg"><path d="M12 2.4c-5.292 0-9.6 4.308-9.6 9.6 0 5.293 4.308 9.6 9.6 9.6a9.501 9.501 0 005.483-1.745.8.8 0 00-.92-1.31A7.882 7.882 0 0112 20c-4.428 0-8-3.572-8-8 0-4.427 3.572-8 8-8 1.703 0 3.265.542 4.563 1.455a.8.8 0 00.92-1.31A9.501 9.501 0 0012 2.4zm6.392 5.593a.8.8 0 00-.558 1.373L19.67 11.2H11.2a.8.8 0 100 1.6h8.469l-1.835 1.835a.8.8 0 101.132 1.131l3.13-3.13a.799.799 0 00-.002-1.273l-3.128-3.128a.8.8 0 00-.574-.242z" fill="#fff"/></svg>