<svg width="22" height="22" fill="none" xmlns="http://www.w3.org/2000/svg"><path d="M5.72.92a4.807 4.807 0 00-4.8 4.8v10.56c0 2.645 2.154 4.8 4.8 4.8h10.56c2.645 0 4.8-2.155 4.8-4.8V5.72c0-2.646-2.155-4.8-4.8-4.8H5.72zm-.48 5.76h11.52a.82.82 0 01.245.034l-4.719 4.713c-.71.71-1.867.71-2.577 0L4.995 6.714a.815.815 0 01.245-.034zm-.926.715L7.923 11l-3.61 3.605a.815.815 0 01-.033-.245V7.64a.82.82 0 01.034-.245zm13.372 0a.815.815 0 01.034.245v6.72a.82.82 0 01-.034.245L14.072 11l3.614-3.605zM8.6 11.677l.427.432c.543.542 1.258.81 1.968.81.715 0 1.426-.268 1.968-.81l.432-.432 3.61 3.61a.815.815 0 01-.245.033H5.24a.815.815 0 01-.245-.034l3.605-3.61z" fill="#E51BEF"/></svg>