<svg width="18" height="17" xmlns="http://www.w3.org/2000/svg"><path fill="none" d="M-1-1h582v402H-1z"/><path fill="#E51BEF" d="M8.373.504a1 1 0 011.254 0l2.316 1.863a1 1 0 00.408.197l2.9.649a1 1 0 01.782.98l-.013 2.972a1 1 0 00.101.442l1.301 2.672a1 1 0 01-.279 1.223l-2.331 1.843a1 1 0 00-.283.354l-1.278 2.683a1 1 0 01-1.13.544l-2.894-.673a1 1 0 00-.454 0l-2.894.673a1 1 0 01-1.13-.543l-1.278-2.684a1 1 0 00-.283-.354L.857 11.502a1 1 0 01-.28-1.223L1.88 7.607a1 1 0 00.1-.442l-.012-2.972a1 1 0 01.782-.98l2.9-.65a1 1 0 00.408-.196L8.373.504z"/><path fill="#13131D" d="M11.767 8.528c.48.18.861.484 1.143.912.281.418.422.94.422 1.568 0 .865-.29 1.535-.87 2.01-.579.466-1.423.698-2.533.698H5.607V3.738h4.074c1.026 0 1.817.233 2.372.699.555.456.832 1.088.832 1.896 0 .494-.1.93-.298 1.311a2.19 2.19 0 01-.82.884zM7.222 5.192v2.751h2.285c.563 0 .993-.114 1.292-.342.306-.237.459-.58.459-1.026 0-.456-.153-.798-.46-1.026-.298-.238-.728-.357-1.291-.357H7.222zm2.608 7.07c1.25 0 1.875-.48 1.875-1.44 0-.959-.625-1.439-1.875-1.439H7.222v2.88H9.83z" stroke="null"/></svg>