<svg width="87" height="94" fill="none" xmlns="http://www.w3.org/2000/svg"><g clip-path="url(#clip0)" filter="url(#filter0_d)" fill="#18BAFF"><path d="M59.689 25.47l-14.573-4.224a6.204 6.204 0 00-3.46 0L27.083 25.47c-1.076.312-1.827 1.299-1.827 2.402v11.86a26.598 26.598 0 004.808 15.285 27.44 27.44 0 0012.359 9.797 2.594 2.594 0 001.926 0 27.439 27.439 0 0012.359-9.797 26.598 26.598 0 004.808-15.285v-11.86c0-1.103-.751-2.09-1.827-2.402zm-.211 14.262a24.63 24.63 0 01-4.451 14.152 25.412 25.412 0 01-11.446 9.074.523.523 0 01-.39 0 25.41 25.41 0 01-11.446-9.074 24.626 24.626 0 01-4.45-14.152v-11.86c0-.221.15-.419.365-.48l14.573-4.225a4.138 4.138 0 012.306 0l14.573 4.224c.215.063.366.26.366.48v11.86z"/><path d="M54.68 29.9l-10.863-3.15a1.551 1.551 0 00-.864 0l-10.86 3.15a1.515 1.515 0 00-1.097 1.441v8.392c0 4.434 1.365 8.687 3.947 12.3a21.83 21.83 0 007.735 6.687 1.545 1.545 0 001.416 0 21.829 21.829 0 007.735-6.687 21.035 21.035 0 003.947-12.3V31.34c0-.661-.451-1.254-1.097-1.44zm-.943 9.832a19.06 19.06 0 01-3.576 11.148 19.8 19.8 0 01-6.775 5.94 19.798 19.798 0 01-6.775-5.94 19.065 19.065 0 01-3.577-11.148v-8.017l10.352-3 10.351 3v8.017z"/></g><defs><clipPath id="clip0"><path fill="#fff" transform="translate(21 21)" d="M0 0h44.772v44H0z"/></clipPath><filter id="filter0_d" x="-4" y="0" width="94.772" height="94" filterUnits="userSpaceOnUse" color-interpolation-filters="sRGB"><feFlood flood-opacity="0" result="BackgroundImageFix"/><feColorMatrix in="SourceAlpha" values="0 0 0 0 0 0 0 0 0 0 0 0 0 0 0 0 0 0 127 0" result="hardAlpha"/><feOffset dy="4"/><feGaussianBlur stdDeviation="12.5"/><feColorMatrix values="0 0 0 0 0.603922 0 0 0 0 0.0941176 0 0 0 0 1 0 0 0 0.4 0"/><feBlend in2="BackgroundImageFix" result="effect1_dropShadow"/><feBlend in="SourceGraphic" in2="effect1_dropShadow" result="shape"/></filter></defs></svg>