<svg width="37" height="44" fill="none" xmlns="http://www.w3.org/2000/svg"><path d="M34.689 4.47L20.116.246a6.204 6.204 0 00-3.46 0L2.083 4.47C1.007 4.78.256 5.77.256 6.87v11.861a26.598 26.598 0 004.808 15.285 27.44 27.44 0 0012.359 9.797 2.594 2.594 0 001.926 0 27.439 27.439 0 0012.359-9.797 26.598 26.598 0 004.808-15.285V6.872c0-1.103-.751-2.09-1.827-2.402zm-.211 14.262a24.63 24.63 0 01-4.451 14.152 25.412 25.412 0 01-11.446 9.074.523.523 0 01-.39 0 25.41 25.41 0 01-11.446-9.074 24.627 24.627 0 01-4.45-14.152V6.872c0-.221.15-.418.365-.48l14.573-4.225a4.138 4.138 0 012.306 0l14.573 4.224c.215.062.366.26.366.48v11.86z" fill="#18BAFF"/><path d="M29.68 8.9L18.817 5.75a1.55 1.55 0 00-.865 0L7.093 8.9a1.515 1.515 0 00-1.097 1.442v8.391c0 4.434 1.365 8.687 3.947 12.3a21.829 21.829 0 007.735 6.687 1.545 1.545 0 001.416 0 21.829 21.829 0 007.735-6.687 21.035 21.035 0 003.947-12.3v-8.391c0-.662-.451-1.255-1.097-1.442zm-.943 9.832a19.06 19.06 0 01-3.576 11.148 19.8 19.8 0 01-6.775 5.94 19.798 19.798 0 01-6.775-5.94 19.065 19.065 0 01-3.577-11.148v-8.017l10.352-3 10.351 3v8.017z" fill="#18BAFF"/></svg>